<svg xmlns="http://www.w3.org/2000/svg" width="384" height="366" fill="none" preserveAspectRatio="none"><path stroke="#fff" stroke-opacity=".15" stroke-width="2" d="M32 1h287.453a31 31 0 0 1 22.647 9.832l32.548 34.822A31 31 0 0 1 383 66.823V334c0 17.121-13.879 31-31 31H32c-17.12 0-31-13.879-31-31V32C1 14.88 14.88 1 32 1Z" vector-effect="non-scaling-stroke"/><path stroke="url(#a)" stroke-opacity=".85" stroke-width="2" d="M32 1h287.453a31 31 0 0 1 22.647 9.832l32.548 34.822A31 31 0 0 1 383 66.823V334c0 17.121-13.879 31-31 31H32c-17.12 0-31-13.879-31-31V32C1 14.88 14.88 1 32 1Z" vector-effect="non-scaling-stroke"/><defs><linearGradient id="a" x1="192" x2="192" y1="0" y2="366" gradientUnits="userSpaceOnUse"><stop stop-color="#33CEFF"/><stop offset=".563" stop-color="#D633FF" stop-opacity="0"/></linearGradient></defs></svg>