<svg xmlns="http://www.w3.org/2000/svg" width="48" height="48" fill="none"><rect width="48" height="48" fill="#FF776F" rx="12"/><path fill="#0E0C15" fill-rule="evenodd" d="M31 29.5a1.5 1.5 0 0 0-1.5-1.5H20a5 5 0 0 1 0-10h3v2h-3a3 3 0 0 0 0 6h9.5a3.5 3.5 0 1 1 0 7H16a1 1 0 1 1 0-2h13.5a1.5 1.5 0 0 0 1.5-1.5Z" clip-rule="evenodd"/><path fill="#0E0C15" d="M32 16h-4v2h4a1 1 0 1 0 0-2ZM32 20h-4v2h4a1 1 0 1 0 0-2Z"/><path fill="#0E0C15" d="M21 19a4 4 0 0 1 4-4h4a1 1 0 0 1 1 1v6a1 1 0 0 1-1 1h-4a4 4 0 0 1-4-4Z"/></svg>