<svg xmlns="http://www.w3.org/2000/svg" width="48" height="48" fill="none"><rect width="48" height="48" fill="#AC6AFF" rx="12"/><path fill="#0E0C15" fill-rule="evenodd" d="M15 21.4v7.875c0 1.858 0 2.787.365 3.209a1.5 1.5 0 0 0 1.271.514c.556-.051 1.201-.72 2.491-2.057l.93-.963c.347-.36.521-.54.726-.67a2 2 0 0 1 .59-.25c.234-.058.485-.058.986-.058H26.6c2.24 0 3.36 0 4.216-.436a4 4 0 0 0 1.748-1.748C33 25.96 33 24.84 33 22.6v-1.2c0-2.24 0-3.36-.436-4.216a4 4 0 0 0-1.748-1.748C29.96 15 28.84 15 26.6 15h-5.2c-2.24 0-3.36 0-4.216.436a4 4 0 0 0-1.748 1.748C15 18.04 15 19.16 15 21.4Zm5 1.6a1 1 0 1 0 0-2 1 1 0 0 0 0 2Zm5-1a1 1 0 1 1-2 0 1 1 0 0 1 2 0Zm3 1a1 1 0 1 0 0-2 1 1 0 0 0 0 2Z" clip-rule="evenodd"/></svg>