<svg width="56" height="56" fill="none" xmlns="http://www.w3.org/2000/svg"><rect width="56" height="56" rx="28" fill="#000" fill-opacity=".48"/><rect x="4" y="4" width="48" height="48" rx="24" fill="#15131D"/><path fill-rule="evenodd" clip-rule="evenodd" d="M19 25h11.126A4.002 4.002 0 0 0 38 24a4 4 0 0 0-7.874-1H19a1 1 0 1 0 0 2ZM37 31H25.874A4.002 4.002 0 0 0 18 32a4 4 0 0 0 7.874 1H37a1 1 0 1 0 0-2Z" fill="#CAC6DD"/><rect x="4.5" y="4.5" width="47" height="47" rx="23.5" stroke="url(#a)" stroke-opacity=".15"/><defs><linearGradient id="a" x1="28" y1="4" x2="28" y2="52" gradientUnits="userSpaceOnUse"><stop stop-color="#fff"/><stop offset=".56" stop-color="#fff" stop-opacity="0"/></linearGradient></defs></svg>