<svg xmlns="http://www.w3.org/2000/svg" width="18" height="18" fill="none"><g fill="#757185" clip-path="url(#a)"><path d="M7.447 7.62a.955.955 0 0 0 0 1.903.91.91 0 0 0 .876-.951.908.908 0 0 0-.876-.952Zm3.128 0a.955.955 0 1 0 .877.952.913.913 0 0 0-.875-.952h-.002Z"/><path d="M14.743.429H3.257A1.761 1.761 0 0 0 1.5 2.197v11.586a1.761 1.761 0 0 0 1.757 1.768h9.72l-.454-1.586 1.097 1.018 1.037.96 1.843 1.629V2.197A1.76 1.76 0 0 0 14.743.429Zm-3.309 11.196s-.308-.368-.565-.696a2.705 2.705 0 0 0 1.553-1.018c-.308.205-.639.375-.986.506a5.64 5.64 0 0 1-1.242.368 6.004 6.004 0 0 1-2.22-.008 7.195 7.195 0 0 1-1.26-.369 5.14 5.14 0 0 1-.982-.508c.367.502.898.86 1.5 1.012-.257.325-.574.711-.574.711a3.108 3.108 0 0 1-2.614-1.303 11.478 11.478 0 0 1 1.232-4.997 4.239 4.239 0 0 1 2.41-.9l.086.103a5.783 5.783 0 0 0-2.254 1.123s.188-.103.506-.249a6.437 6.437 0 0 1 1.947-.54.844.844 0 0 1 .146-.017 6.988 6.988 0 0 1 4.311.806 5.705 5.705 0 0 0-2.134-1.089l.12-.137c.878.043 1.72.357 2.411.9a11.479 11.479 0 0 1 1.232 4.997 3.132 3.132 0 0 1-2.623 1.305Z"/></g><defs><clipPath id="a"><path fill="#fff" d="M.428.429H17.57v17.143H.428z"/></clipPath></defs></svg>