<svg xmlns="http://www.w3.org/2000/svg" width="18" height="18" fill="none"><g fill="#757185" clip-path="url(#a)"><path d="M8.997 11.715a2.714 2.714 0 1 0 0-5.429 2.714 2.714 0 0 0 0 5.429Z"/><path d="M12.39.857H5.605a4.756 4.756 0 0 0-4.75 4.751v6.786a4.756 4.756 0 0 0 4.751 4.75h6.786a4.756 4.756 0 0 0 4.75-4.751V5.607A4.756 4.756 0 0 0 12.39.857ZM8.998 13.072A4.075 4.075 0 0 1 4.927 9 4.076 4.076 0 0 1 8.998 4.93 4.076 4.076 0 0 1 13.07 9a4.076 4.076 0 0 1-4.072 4.072Zm4.75-8.143a.679.679 0 1 1 0-1.358.679.679 0 0 1 0 1.358Z"/></g><defs><clipPath id="a"><path fill="#fff" d="M.428.429H17.57v17.143H.428z"/></clipPath></defs></svg>