<svg xmlns="http://www.w3.org/2000/svg" width="18" height="18" fill="none"><g clip-path="url(#a)"><path fill="#757185" d="M17.536 2.233a.366.366 0 0 0-.25-.271 1.286 1.286 0 0 0-.674.048S1.592 7.408.735 8.006c-.186.129-.247.203-.278.292-.148.425.314.613.314.613l3.87 1.261a.43.43 0 0 0 .197-.012c.88-.556 8.86-5.595 9.321-5.764.072-.022.126 0 .114.054-.188.646-7.08 6.77-7.117 6.807a.147.147 0 0 0-.054.126l-.36 3.778s-.15 1.178 1.025 0a32.224 32.224 0 0 1 2.036-1.862c1.331.918 2.764 1.935 3.382 2.464a1.076 1.076 0 0 0 .784.303c.59-.022.75-.667.75-.667s2.736-11.011 2.829-12.487c.008-.145.02-.238.021-.337a1.221 1.221 0 0 0-.033-.342Z"/></g><defs><clipPath id="a"><path fill="#fff" d="M.428.429H17.57v17.143H.428z"/></clipPath></defs></svg>