<svg xmlns="http://www.w3.org/2000/svg" width="18" height="18" fill="none"><g clip-path="url(#a)"><path fill="#757185" d="M17.571 3.697c-.642.268-1.285.482-2.035.536a3.462 3.462 0 0 0 1.553-1.929c-.696.429-1.446.696-2.25.857a3.45 3.45 0 0 0-2.518-1.125 3.532 3.532 0 0 0-3.535 3.536c0 .268.053.536.107.803-2.947-.16-5.518-1.553-7.286-3.696a3.372 3.372 0 0 0-.482 1.768c0 1.232.643 2.303 1.554 2.946-.59 0-1.125-.16-1.608-.428v.053c0 1.715 1.233 3.107 2.84 3.429-.322.053-.59.107-.911.107-.214 0-.429 0-.643-.054.429 1.393 1.768 2.411 3.268 2.465-1.179.964-2.732 1.5-4.393 1.5-.268 0-.59 0-.857-.054 1.607.964 3.482 1.554 5.464 1.554 6.482 0 10.018-5.357 10.018-10.018v-.429c.643-.535 1.232-1.125 1.714-1.821Z"/></g><defs><clipPath id="a"><path fill="#fff" d="M.428.429H17.57v17.143H.428z"/></clipPath></defs></svg>