<svg width="952" height="396" fill="none" xmlns="http://www.w3.org/2000/svg"><g opacity=".35" fill="#fff"><circle cx="417" cy="161" r="4"/><circle opacity=".5" cx="515" cy="116" r="2"/><circle opacity=".5" cx="423" cy="279" r="4"/><circle opacity=".3" cx="366" cy="394" r="2"/><circle cx="265" cy="327" r="2"/><circle opacity=".2" cx="362" cy="209" r="2"/><circle opacity=".3" cx="548" cy="211" r="2"/><circle opacity=".2" cx="607" cy="281" r="2"/><circle opacity=".21" cx="789" cy="281" r="2"/><circle cx="362" cy="65" r="2"/><circle opacity=".3" cx="192" cy="132" r="2"/><circle cx="743" cy="2" r="2"/></g><path d="M834 150c-6.627 0-12-5.373-12-12s5.373-12 12-12 12 5.373 12 12-5.373 12-12 12Z" fill="url(#a)"/><path d="M4 206a4 4 0 1 1 0-8 4 4 0 0 1 0 8Z" fill="url(#b)"/><path d="M948 206a4 4 0 1 1 0-8 4 4 0 0 1 0 8Z" fill="url(#c)"/><path d="M154 326a8 8 0 1 1 0-16 8 8 0 0 1 0 16Z" fill="url(#d)"/><defs><linearGradient id="a" x1="834" y1="126" x2="834" y2="150" gradientUnits="userSpaceOnUse"><stop stop-color="#88E5BE"/><stop offset="1" stop-color="#1A1A32"/></linearGradient><linearGradient id="b" x1="4" y1="198" x2="4" y2="206" gradientUnits="userSpaceOnUse"><stop stop-color="#DD734F"/><stop offset="1" stop-color="#1A1A32"/></linearGradient><linearGradient id="c" x1="948" y1="198" x2="948" y2="206" gradientUnits="userSpaceOnUse"><stop stop-color="#DD734F"/><stop offset="1" stop-color="#1A1A32"/></linearGradient><linearGradient id="d" x1="154" y1="310" x2="154" y2="326" gradientUnits="userSpaceOnUse"><stop stop-color="#B9AEDF"/><stop offset="1" stop-color="#1A1A32"/></linearGradient></defs></svg>