<svg xmlns="http://www.w3.org/2000/svg" width="24" height="24"><path fill="#FFF" fill-rule="evenodd" d="M17.241 2H6.76c-.805 0-1.47 0-2.01.044-.563.046-1.08.145-1.565.392a4 4 0 0 0-1.748 1.748c-.247.485-.346 1.002-.392 1.564C1 6.29 1 6.954 1 7.758v8.483c0 .805 0 1.47.044 2.01.046.563.145 1.08.392 1.565a4 4 0 0 0 1.748 1.748c.485.247 1.002.346 1.564.392C5.29 22 5.954 22 6.758 22h10.483c.805 0 1.47 0 2.01-.044.563-.046 1.08-.145 1.565-.392a4 4 0 0 0 1.748-1.748c.247-.485.346-1.002.392-1.564.044-.541.044-1.206.044-2.01V7.758c0-.805 0-1.47-.044-2.01-.046-.563-.145-1.08-.392-1.565a4 4 0 0 0-1.748-1.748c-.485-.247-1.002-.346-1.564-.392C18.71 2 18.046 2 17.242 2ZM4.006 9.94a1 1 0 0 1 1.104-.884 10 10 0 0 1 8.834 8.833 1 1 0 1 1-1.988.221 8 8 0 0 0-7.067-7.066 1 1 0 0 1-.883-1.105Zm.014 3.96a1 1 0 0 1 1.18-.78 6 6 0 0 1 4.68 4.68 1 1 0 0 1-1.96.4 4 4 0 0 0-3.12-3.12 1 1 0 0 1-.78-1.18ZM5 17a1 1 0 1 0 0 2h.01a1 1 0 1 0 0-2H5Z"/></svg>