<svg width="24" height="24" fill="none" xmlns="http://www.w3.org/2000/svg"><path d="M8.126 14a4.002 4.002 0 0 0 7.748 0M11.018 2.766 4.235 8.04c-.453.352-.68.529-.843.75a2 2 0 0 0-.318.65C3 9.704 3 9.99 3 10.566V17.8c0 1.12 0 1.68.218 2.108a2 2 0 0 0 .874.874C4.52 21 5.08 21 6.2 21h11.6c1.12 0 1.68 0 2.108-.218a2 2 0 0 0 .874-.874C21 19.48 21 18.92 21 17.8v-7.235c0-.575 0-.862-.074-1.126a2.002 2.002 0 0 0-.318-.65c-.163-.221-.39-.398-.843-.75l-6.783-5.275c-.351-.274-.527-.41-.72-.463a1 1 0 0 0-.523 0c-.194.053-.37.19-.721.463Z" stroke="#fff" stroke-width="2" stroke-linecap="round" stroke-linejoin="round"/></svg>