<svg width="17" height="16" fill="none" xmlns="http://www.w3.org/2000/svg"><path fill-rule="evenodd" clip-rule="evenodd" d="M8.217.834c.369 0 .667.298.667.667v1.666a.667.667 0 1 1-1.333 0V1.501c0-.369.298-.667.666-.667ZM8.217 11.334c.369 0 .667.299.667.667v2.666a.667.667 0 1 1-1.333 0v-2.666c0-.368.298-.667.666-.667ZM1.05 8c0-.368.3-.666.667-.666h2.334a.667.667 0 0 1 0 1.333H1.717a.667.667 0 0 1-.666-.666ZM12.717 8c0-.368.299-.666.667-.666h1a.667.667 0 1 1 0 1.333h-1a.667.667 0 0 1-.667-.666ZM11.58 11.363c.26-.26.682-.26.942 0l.472.471a.667.667 0 0 1-.943.943l-.472-.472a.667.667 0 0 1 0-.942ZM13.132 3.14c.26.26.26.682 0 .943l-.943.942a.667.667 0 0 1-.943-.942l.943-.943c.26-.26.682-.26.943 0ZM5.856 10.363c.26.26.26.682 0 .942L3.97 13.191a.667.667 0 1 1-.943-.943l1.886-1.885c.26-.26.682-.26.943 0ZM3.165 3.002c.26-.26.683-.26.943 0l1.414 1.414a.667.667 0 1 1-.943.943L3.165 3.945a.667.667 0 0 1 0-.943Z" fill="#000"/></svg>