<svg xmlns="http://www.w3.org/2000/svg" width="48" height="48"><path fill="#FFF" d="m38.831 15.118-.008-5.213-9.62-6.288v4.022l6.345 4.178.005 3.202-2.948 1.996-2.011-1.467v-2.485l-3.277-2.242v4.523l-5.195 3.188-.009 8.42-3.673 2.068-1.886-1.477v-2.438l2.232-1.529v-3.793l-4.017 2.688-3.071-1.998-2.805 1.837 4.384 3.001v1.843l-3.16 2.137-3.223-2.182v-7.261l4.785-3.24.005-3.116 6.136 3.953 5.158-3.434-3.144-1.834-2.058 1.387-4.482-2.964 5.055-2.946 4.378 2.566V6.393l-4.373-2.565-9.943 5.797-.007 5.215-4.787 3.242v10.792l4.787 3.242.007 5.216 9.621 6.285v-4.019l-6.346-4.178-.005-3.202 2.948-1.996 2.011 1.467v2.485l3.277 2.242v-4.524l5.269-3.187.059-8.42 3.55-2.068 1.885 1.477v2.437l-2.232 1.53v3.793l4.017-2.689 3.071 1.999 2.805-1.837-4.383-3.004v-1.84l3.159-2.137 3.223 2.182v7.261l-4.784 3.24-.005 3.115-6.137-3.954-5.158 3.411 3.145 1.832 2.058-1.361 4.482 2.964-5.055 2.947-4.379-2.567v3.826l4.374 2.564 9.942-5.794.008-5.216 4.786-3.242V18.361z"/></svg>