<svg width="134" height="28" fill="none" xmlns="http://www.w3.org/2000/svg"><g clip-path="url(#a)"><circle cx="14.6" cy="14" r="12.32" stroke="#fff" stroke-width="3.36"/><mask id="b" style="mask-type:alpha" maskUnits="userSpaceOnUse" x="0" y="0" width="29" height="28"><circle cx="14.6" cy="14" r="14" fill="#000"/></mask><g mask="url(#b)"><circle cx="9.864" cy="8.235" r="10.467" stroke="#fff" stroke-width="3.36"/></g></g><path d="M42.785 24.253v-2.665h2.235c.34 0 .627-.046.862-.138a1.13 1.13 0 0 0 .569-.411c.143-.196.261-.464.352-.804L49.45 9.26h2.979l-3 11.603c-.208.837-.502 1.503-.881 2-.366.496-.863.849-1.49 1.058-.614.222-1.398.333-2.352.333h-1.92Zm3.372-4.488v-2.45h2.273v2.45h-2.273Zm-1.294 0L41.57 9.259h3.156l3.116 10.506h-2.979Zm14.203.607c-.941 0-1.778-.143-2.51-.43a5.61 5.61 0 0 1-1.861-1.216 5.295 5.295 0 0 1-1.137-1.744 5.692 5.692 0 0 1-.392-2.098v-.45c0-.745.13-1.45.392-2.117a5.303 5.303 0 0 1 1.176-1.784 5.582 5.582 0 0 1 1.882-1.195c.731-.3 1.548-.451 2.45-.451.927 0 1.75.15 2.47.45a5.373 5.373 0 0 1 1.861 1.196c.51.51.902 1.104 1.176 1.784.275.666.412 1.372.412 2.117v.45c0 .732-.13 1.431-.392 2.098a5.154 5.154 0 0 1-1.157 1.744c-.496.51-1.11.915-1.842 1.215-.732.288-1.575.431-2.528.431Zm0-2.646c.614 0 1.123-.13 1.528-.392.405-.26.712-.627.922-1.097.222-.47.333-.993.333-1.568 0-.614-.111-1.15-.333-1.607a2.67 2.67 0 0 0-.96-1.118c-.406-.274-.902-.411-1.49-.411-.575 0-1.072.137-1.49.411a2.668 2.668 0 0 0-.96 1.118c-.21.457-.314.993-.314 1.607 0 .575.105 1.097.314 1.568.209.47.522.836.94 1.097.419.262.922.392 1.51.392Zm11.733 2.607c-1.241 0-2.195-.398-2.861-1.195-.667-.81-1-2.026-1-3.646V9.259h3.136v6.39c0 .575.163 1.032.49 1.372.327.34.765.51 1.313.51.562 0 1.02-.177 1.372-.53.353-.353.53-.83.53-1.43V9.258h3.136V20h-2.49v-4.528h.216c0 1.085-.144 1.993-.431 2.725-.275.719-.686 1.254-1.235 1.607s-1.228.53-2.038.53h-.138ZM79.806 20V9.26h2.49v4.605h-.06c0-1.515.32-2.685.961-3.508.653-.823 1.594-1.235 2.822-1.235h.412v2.705h-.784c-.862 0-1.529.235-2 .705-.47.458-.705 1.124-.705 2V20h-3.136Zm8.387 0V5.692h3.156V20h-3.156ZM86.919 8.005V5.692h4.43v2.313h-4.43Zm12.552 12.367c-.94 0-1.777-.143-2.508-.43a5.61 5.61 0 0 1-1.862-1.216 5.298 5.298 0 0 1-1.137-1.744 5.694 5.694 0 0 1-.392-2.098v-.45c0-.745.13-1.45.392-2.117a5.303 5.303 0 0 1 1.176-1.784 5.584 5.584 0 0 1 1.881-1.195c.732-.3 1.549-.451 2.45-.451.928 0 1.751.15 2.47.45a5.374 5.374 0 0 1 1.862 1.196 5.29 5.29 0 0 1 1.176 1.784c.274.666.412 1.372.412 2.117v.45a5.7 5.7 0 0 1-.392 2.098 5.158 5.158 0 0 1-1.157 1.744c-.496.51-1.11.915-1.842 1.215-.732.288-1.575.431-2.529.431Zm0-2.646c.615 0 1.124-.13 1.529-.392.405-.26.712-.627.921-1.097.223-.47.334-.993.334-1.568 0-.614-.111-1.15-.334-1.607a2.668 2.668 0 0 0-.96-1.118c-.405-.274-.902-.411-1.49-.411-.575 0-1.071.137-1.49.411a2.67 2.67 0 0 0-.96 1.118c-.209.457-.313.993-.313 1.607 0 .575.104 1.097.313 1.568.21.47.523.836.941 1.097.418.262.921.392 1.51.392Zm12.342 6.547c-.523 0-1.059-.02-1.607-.059a21.692 21.692 0 0 1-1.51-.157v-2.646c.458.066.961.118 1.51.157.562.052 1.071.078 1.528.078.85 0 1.536-.098 2.058-.294.536-.196.928-.496 1.176-.901.249-.392.373-.902.373-1.529v-2.136l.568-1.255c-.026.954-.215 1.77-.568 2.45-.34.68-.817 1.202-1.431 1.568-.614.353-1.346.53-2.195.53a4.96 4.96 0 0 1-1.999-.393 4.482 4.482 0 0 1-1.51-1.136 5.105 5.105 0 0 1-.96-1.686 6.538 6.538 0 0 1-.333-2.117v-.45c0-.758.117-1.464.353-2.117a4.984 4.984 0 0 1 1.019-1.706 4.544 4.544 0 0 1 1.587-1.117 4.946 4.946 0 0 1 2.039-.411c.862 0 1.607.19 2.234.568.641.379 1.144.934 1.509 1.666.366.732.562 1.614.588 2.646l-.431.118V9.259h2.489v9.467c0 1.32-.235 2.385-.705 3.195-.471.81-1.189 1.405-2.156 1.783-.954.38-2.163.569-3.626.569Zm.882-6.84c.483 0 .921-.105 1.313-.314.392-.222.699-.536.921-.941.235-.405.353-.895.353-1.47v-.568c0-.562-.124-1.033-.372-1.412a2.267 2.267 0 0 0-.941-.882 2.626 2.626 0 0 0-1.255-.313c-.522 0-.986.124-1.391.372a2.5 2.5 0 0 0-.941 1.039c-.222.444-.333.967-.333 1.568 0 .614.111 1.143.333 1.588.235.43.549.764.941 1 .405.221.862.332 1.372.332Zm13.554 2.94c-.941 0-1.777-.144-2.509-.432a5.622 5.622 0 0 1-1.862-1.215 5.298 5.298 0 0 1-1.136-1.744 5.68 5.68 0 0 1-.392-2.098v-.45c0-.745.13-1.45.392-2.117a5.29 5.29 0 0 1 1.176-1.784 5.572 5.572 0 0 1 1.881-1.195c.732-.3 1.549-.451 2.45-.451.928 0 1.751.15 2.47.45a5.383 5.383 0 0 1 1.862 1.196 5.32 5.32 0 0 1 1.176 1.784c.274.666.411 1.372.411 2.117v.45c0 .732-.13 1.431-.392 2.098a5.14 5.14 0 0 1-1.156 1.744c-.497.51-1.111.915-1.842 1.215-.732.288-1.575.431-2.529.431Zm0-2.647c.614 0 1.124-.13 1.529-.392.405-.26.712-.627.921-1.097.222-.47.333-.993.333-1.568 0-.614-.111-1.15-.333-1.607a2.668 2.668 0 0 0-.96-1.118c-.405-.274-.902-.411-1.49-.411-.575 0-1.071.137-1.489.411a2.663 2.663 0 0 0-.961 1.118c-.209.457-.313.993-.313 1.607 0 .575.104 1.097.313 1.568.209.47.523.836.941 1.097.418.262.921.392 1.509.392Z" fill="#fff"/><defs><clipPath id="a"><path fill="#fff" transform="translate(.6)" d="M0 0h28v28H0z"/></clipPath></defs></svg>